<mxfile host="app.diagrams.net" modified="2024-06-27T09:57:28.354Z" agent="Mozilla/5.0 (Windows NT 10.0; Win64; x64) AppleWebKit/537.36 (KHTML, like Gecko) Chrome/126.0.0.0 Safari/537.36" etag="wWA2N_JML68tJvn7mF9b" version="24.5.4" type="device" pages="4">
  <diagram name="Pagina-1" id="W2WlsoMzkydaY5UXI9UW">
    <mxGraphModel dx="893" dy="567" grid="1" gridSize="10" guides="1" tooltips="1" connect="1" arrows="1" fold="1" page="1" pageScale="1" pageWidth="827" pageHeight="1169" math="0" shadow="0">
      <root>
        <mxCell id="0" />
        <mxCell id="1" parent="0" />
        <mxCell id="q_Z_n0qWOUpQf6vzp3yS-1" value="Php" style="text;strokeColor=none;fillColor=none;html=1;fontSize=24;fontStyle=1;verticalAlign=middle;align=center;" parent="1" vertex="1">
          <mxGeometry x="20" y="10" width="100" height="40" as="geometry" />
        </mxCell>
        <mxCell id="JJIHgTKQ2a55WgCsAhha-8" value="request" style="edgeStyle=orthogonalEdgeStyle;rounded=0;orthogonalLoop=1;jettySize=auto;html=1;exitX=1;exitY=0.5;exitDx=0;exitDy=0;" parent="1" source="q_Z_n0qWOUpQf6vzp3yS-2" target="JJIHgTKQ2a55WgCsAhha-7" edge="1">
          <mxGeometry relative="1" as="geometry" />
        </mxCell>
        <mxCell id="q_Z_n0qWOUpQf6vzp3yS-2" value="" style="image;aspect=fixed;perimeter=ellipsePerimeter;html=1;align=center;shadow=0;dashed=0;spacingTop=3;image=img/lib/active_directory/mac_client.svg;" parent="1" vertex="1">
          <mxGeometry x="75.5" y="110" width="47" height="50" as="geometry" />
        </mxCell>
        <mxCell id="JJIHgTKQ2a55WgCsAhha-1" value="Mobile client" style="sketch=0;outlineConnect=0;fontColor=#232F3E;gradientColor=none;strokeColor=#232F3E;fillColor=#ffffff;dashed=0;verticalLabelPosition=bottom;verticalAlign=top;align=center;html=1;fontSize=12;fontStyle=0;aspect=fixed;shape=mxgraph.aws4.resourceIcon;resIcon=mxgraph.aws4.mobile_client;" parent="1" vertex="1">
          <mxGeometry x="66.75" y="180" width="60" height="60" as="geometry" />
        </mxCell>
        <mxCell id="T2Y2fOaXwYkm9QYUBsGF-1" value="" style="edgeStyle=orthogonalEdgeStyle;rounded=0;orthogonalLoop=1;jettySize=auto;html=1;" edge="1" parent="1" source="JJIHgTKQ2a55WgCsAhha-2" target="JJIHgTKQ2a55WgCsAhha-3">
          <mxGeometry relative="1" as="geometry" />
        </mxCell>
        <mxCell id="JJIHgTKQ2a55WgCsAhha-2" value="" style="image;aspect=fixed;perimeter=ellipsePerimeter;html=1;align=center;shadow=0;dashed=0;spacingTop=3;image=img/lib/active_directory/laptop_client.svg;" parent="1" vertex="1">
          <mxGeometry x="70" y="270" width="45" height="50" as="geometry" />
        </mxCell>
        <mxCell id="JJIHgTKQ2a55WgCsAhha-3" value="" style="image;aspect=fixed;perimeter=ellipsePerimeter;html=1;align=center;shadow=0;dashed=0;spacingTop=3;image=img/lib/active_directory/workstation_client.svg;" parent="1" vertex="1">
          <mxGeometry x="75.5" y="340" width="42.5" height="50" as="geometry" />
        </mxCell>
        <mxCell id="JJIHgTKQ2a55WgCsAhha-4" value="Actor" style="shape=umlActor;verticalLabelPosition=bottom;verticalAlign=top;html=1;outlineConnect=0;" parent="1" vertex="1">
          <mxGeometry x="10" y="190" width="30" height="60" as="geometry" />
        </mxCell>
        <mxCell id="JJIHgTKQ2a55WgCsAhha-15" value="" style="edgeStyle=orthogonalEdgeStyle;rounded=0;orthogonalLoop=1;jettySize=auto;html=1;" parent="1" source="JJIHgTKQ2a55WgCsAhha-5" target="JJIHgTKQ2a55WgCsAhha-14" edge="1">
          <mxGeometry relative="1" as="geometry" />
        </mxCell>
        <mxCell id="JJIHgTKQ2a55WgCsAhha-5" value="URL" style="text;strokeColor=none;fillColor=none;html=1;fontSize=24;fontStyle=1;verticalAlign=middle;align=center;" parent="1" vertex="1">
          <mxGeometry x="150" y="10" width="100" height="40" as="geometry" />
        </mxCell>
        <mxCell id="JJIHgTKQ2a55WgCsAhha-17" value="" style="edgeStyle=orthogonalEdgeStyle;rounded=0;orthogonalLoop=1;jettySize=auto;html=1;" parent="1" source="JJIHgTKQ2a55WgCsAhha-6" target="JJIHgTKQ2a55WgCsAhha-16" edge="1">
          <mxGeometry relative="1" as="geometry" />
        </mxCell>
        <mxCell id="JJIHgTKQ2a55WgCsAhha-21" value="response" style="edgeStyle=orthogonalEdgeStyle;rounded=0;orthogonalLoop=1;jettySize=auto;html=1;exitX=0;exitY=0.75;exitDx=0;exitDy=0;entryX=1;entryY=1;entryDx=0;entryDy=0;" parent="1" source="JJIHgTKQ2a55WgCsAhha-6" target="JJIHgTKQ2a55WgCsAhha-7" edge="1">
          <mxGeometry relative="1" as="geometry" />
        </mxCell>
        <mxCell id="JJIHgTKQ2a55WgCsAhha-23" value="" style="edgeStyle=orthogonalEdgeStyle;rounded=0;orthogonalLoop=1;jettySize=auto;html=1;" parent="1" source="JJIHgTKQ2a55WgCsAhha-6" target="JJIHgTKQ2a55WgCsAhha-19" edge="1">
          <mxGeometry relative="1" as="geometry" />
        </mxCell>
        <mxCell id="JJIHgTKQ2a55WgCsAhha-6" value="PHP" style="image;aspect=fixed;perimeter=ellipsePerimeter;html=1;align=center;shadow=0;dashed=0;spacingTop=3;image=img/lib/active_directory/generic_server.svg;" parent="1" vertex="1">
          <mxGeometry x="560" y="98.82000000000001" width="105.2" height="187.86" as="geometry" />
        </mxCell>
        <mxCell id="JJIHgTKQ2a55WgCsAhha-9" style="edgeStyle=orthogonalEdgeStyle;rounded=0;orthogonalLoop=1;jettySize=auto;html=1;exitX=1;exitY=0.5;exitDx=0;exitDy=0;" parent="1" source="JJIHgTKQ2a55WgCsAhha-7" target="JJIHgTKQ2a55WgCsAhha-6" edge="1">
          <mxGeometry relative="1" as="geometry" />
        </mxCell>
        <mxCell id="JJIHgTKQ2a55WgCsAhha-22" style="edgeStyle=orthogonalEdgeStyle;rounded=0;orthogonalLoop=1;jettySize=auto;html=1;exitX=0;exitY=0.75;exitDx=0;exitDy=0;entryX=0.75;entryY=1;entryDx=0;entryDy=0;" parent="1" source="JJIHgTKQ2a55WgCsAhha-7" target="q_Z_n0qWOUpQf6vzp3yS-2" edge="1">
          <mxGeometry relative="1" as="geometry">
            <Array as="points">
              <mxPoint x="109" y="198" />
            </Array>
          </mxGeometry>
        </mxCell>
        <mxCell id="JJIHgTKQ2a55WgCsAhha-7" value="internet" style="image;aspect=fixed;perimeter=ellipsePerimeter;html=1;align=center;shadow=0;dashed=0;spacingTop=3;image=img/lib/active_directory/internet_cloud.svg;" parent="1" vertex="1">
          <mxGeometry x="250" y="130" width="150" height="94.5" as="geometry" />
        </mxCell>
        <mxCell id="JJIHgTKQ2a55WgCsAhha-10" value="http" style="text;strokeColor=#d6b656;fillColor=#fff2cc;html=1;fontSize=24;fontStyle=1;verticalAlign=middle;align=center;" parent="1" vertex="1">
          <mxGeometry x="250" y="10" width="100" height="40" as="geometry" />
        </mxCell>
        <mxCell id="JJIHgTKQ2a55WgCsAhha-11" value="localhost" style="text;strokeColor=#6c8ebf;fillColor=#dae8fc;html=1;fontSize=24;fontStyle=1;verticalAlign=middle;align=center;" parent="1" vertex="1">
          <mxGeometry x="360" y="10" width="120" height="40" as="geometry" />
        </mxCell>
        <mxCell id="JJIHgTKQ2a55WgCsAhha-12" value="8080" style="text;strokeColor=#82b366;fillColor=#d5e8d4;html=1;fontSize=24;fontStyle=1;verticalAlign=middle;align=center;" parent="1" vertex="1">
          <mxGeometry x="490" y="10" width="80" height="40" as="geometry" />
        </mxCell>
        <mxCell id="JJIHgTKQ2a55WgCsAhha-13" value="students" style="text;strokeColor=#b85450;fillColor=#f8cecc;html=1;fontSize=24;fontStyle=1;verticalAlign=middle;align=center;" parent="1" vertex="1">
          <mxGeometry x="580" y="10" width="130" height="40" as="geometry" />
        </mxCell>
        <mxCell id="JJIHgTKQ2a55WgCsAhha-14" value="GET" style="text;strokeColor=#6c8ebf;fillColor=#dae8fc;html=1;fontSize=24;fontStyle=1;verticalAlign=middle;align=center;" parent="1" vertex="1">
          <mxGeometry x="150" y="60" width="100" height="40" as="geometry" />
        </mxCell>
        <mxCell id="JJIHgTKQ2a55WgCsAhha-18" style="edgeStyle=orthogonalEdgeStyle;rounded=0;orthogonalLoop=1;jettySize=auto;html=1;exitX=0;exitY=1;exitDx=0;exitDy=-15;exitPerimeter=0;entryX=1;entryY=0.75;entryDx=0;entryDy=0;" parent="1" source="JJIHgTKQ2a55WgCsAhha-16" target="JJIHgTKQ2a55WgCsAhha-6" edge="1">
          <mxGeometry relative="1" as="geometry" />
        </mxCell>
        <mxCell id="JJIHgTKQ2a55WgCsAhha-16" value="" style="shape=cylinder3;whiteSpace=wrap;html=1;boundedLbl=1;backgroundOutline=1;size=15;" parent="1" vertex="1">
          <mxGeometry x="730" y="152.75" width="60" height="80" as="geometry" />
        </mxCell>
        <mxCell id="JJIHgTKQ2a55WgCsAhha-19" value="Script" style="html=1;whiteSpace=wrap;strokeColor=none;fillColor=#0079D6;labelPosition=center;verticalLabelPosition=middle;verticalAlign=top;align=center;fontSize=12;outlineConnect=0;spacingTop=-6;fontColor=#FFFFFF;sketch=0;shape=mxgraph.sitemap.script;" parent="1" vertex="1">
          <mxGeometry x="552.6" y="360" width="120" height="100" as="geometry" />
        </mxCell>
        <mxCell id="JJIHgTKQ2a55WgCsAhha-20" style="edgeStyle=orthogonalEdgeStyle;rounded=0;orthogonalLoop=1;jettySize=auto;html=1;exitX=0.5;exitY=1;exitDx=0;exitDy=0;entryX=0.5;entryY=0;entryDx=0;entryDy=0;entryPerimeter=0;" parent="1" source="JJIHgTKQ2a55WgCsAhha-6" target="JJIHgTKQ2a55WgCsAhha-19" edge="1">
          <mxGeometry relative="1" as="geometry" />
        </mxCell>
      </root>
    </mxGraphModel>
  </diagram>
  <diagram id="BW7lw_DXD2i6I40ypj0Y" name="Pagina-2">
    <mxGraphModel dx="1082" dy="567" grid="1" gridSize="10" guides="1" tooltips="1" connect="1" arrows="1" fold="1" page="1" pageScale="1" pageWidth="827" pageHeight="1169" math="0" shadow="0">
      <root>
        <mxCell id="0" />
        <mxCell id="1" parent="0" />
        <mxCell id="0cI7kT1DUNUN-Z2Sh0JF-1" value="" style="rounded=0;whiteSpace=wrap;html=1;" vertex="1" parent="1">
          <mxGeometry x="260" y="90" width="200" height="330" as="geometry" />
        </mxCell>
        <mxCell id="0cI7kT1DUNUN-Z2Sh0JF-2" value="index.php" style="text;strokeColor=none;fillColor=none;html=1;fontSize=24;fontStyle=1;verticalAlign=middle;align=center;" vertex="1" parent="1">
          <mxGeometry x="270" y="50" width="100" height="40" as="geometry" />
        </mxCell>
        <mxCell id="0cI7kT1DUNUN-Z2Sh0JF-3" value="header.php" style="rounded=0;whiteSpace=wrap;html=1;fillColor=#fff2cc;strokeColor=#d6b656;" vertex="1" parent="1">
          <mxGeometry x="270" y="100" width="180" height="60" as="geometry" />
        </mxCell>
        <mxCell id="0cI7kT1DUNUN-Z2Sh0JF-4" value="footer.php" style="rounded=0;whiteSpace=wrap;html=1;fillColor=#f8cecc;strokeColor=#b85450;" vertex="1" parent="1">
          <mxGeometry x="270" y="340" width="180" height="60" as="geometry" />
        </mxCell>
        <mxCell id="0cI7kT1DUNUN-Z2Sh0JF-5" value="menu.php" style="rounded=0;whiteSpace=wrap;html=1;fillColor=#e1d5e7;strokeColor=#9673a6;" vertex="1" parent="1">
          <mxGeometry x="270" y="170" width="180" height="30" as="geometry" />
        </mxCell>
        <mxCell id="0cI7kT1DUNUN-Z2Sh0JF-6" value="content.php" style="rounded=0;whiteSpace=wrap;html=1;fillColor=#d5e8d4;strokeColor=#82b366;" vertex="1" parent="1">
          <mxGeometry x="270" y="210" width="180" height="120" as="geometry" />
        </mxCell>
        <mxCell id="0cI7kT1DUNUN-Z2Sh0JF-7" value="side.php" style="rounded=0;whiteSpace=wrap;html=1;fillColor=#f8cecc;strokeColor=#b85450;" vertex="1" parent="1">
          <mxGeometry x="275" y="220" width="45" height="90" as="geometry" />
        </mxCell>
        <mxCell id="0cI7kT1DUNUN-Z2Sh0JF-8" value="page.php" style="rounded=0;whiteSpace=wrap;html=1;fillColor=#f8cecc;strokeColor=#b85450;" vertex="1" parent="1">
          <mxGeometry x="339" y="220" width="101" height="40" as="geometry" />
        </mxCell>
      </root>
    </mxGraphModel>
  </diagram>
  <diagram id="wkJV-5KEFiPR-qv-nhZo" name="Pagina-3">
    <mxGraphModel dx="893" dy="567" grid="1" gridSize="10" guides="1" tooltips="1" connect="1" arrows="1" fold="1" page="1" pageScale="1" pageWidth="827" pageHeight="1169" math="0" shadow="0">
      <root>
        <mxCell id="0" />
        <mxCell id="1" parent="0" />
        <mxCell id="30kHLgqN8U9FkPlxz_FP-1" value="" style="endArrow=classic;html=1;rounded=0;" edge="1" parent="1">
          <mxGeometry width="50" height="50" relative="1" as="geometry">
            <mxPoint x="200" y="400" as="sourcePoint" />
            <mxPoint x="200" y="80" as="targetPoint" />
          </mxGeometry>
        </mxCell>
        <mxCell id="30kHLgqN8U9FkPlxz_FP-2" value="" style="endArrow=classic;html=1;rounded=0;" edge="1" parent="1">
          <mxGeometry width="50" height="50" relative="1" as="geometry">
            <mxPoint x="160" y="360" as="sourcePoint" />
            <mxPoint x="760" y="360" as="targetPoint" />
          </mxGeometry>
        </mxCell>
        <mxCell id="30kHLgqN8U9FkPlxz_FP-3" value="" style="endArrow=none;html=1;rounded=0;" edge="1" parent="1">
          <mxGeometry width="50" height="50" relative="1" as="geometry">
            <mxPoint x="280" y="320" as="sourcePoint" />
            <mxPoint x="440" y="320" as="targetPoint" />
          </mxGeometry>
        </mxCell>
        <mxCell id="30kHLgqN8U9FkPlxz_FP-5" value="a(2,1)" style="text;html=1;align=center;verticalAlign=middle;whiteSpace=wrap;rounded=0;" vertex="1" parent="1">
          <mxGeometry x="250" y="320" width="60" height="30" as="geometry" />
        </mxCell>
        <mxCell id="30kHLgqN8U9FkPlxz_FP-6" value="b(6,1)" style="text;html=1;align=center;verticalAlign=middle;whiteSpace=wrap;rounded=0;" vertex="1" parent="1">
          <mxGeometry x="414" y="320" width="60" height="30" as="geometry" />
        </mxCell>
        <mxCell id="30kHLgqN8U9FkPlxz_FP-7" value="" style="endArrow=none;html=1;rounded=0;" edge="1" parent="1">
          <mxGeometry width="50" height="50" relative="1" as="geometry">
            <mxPoint x="280" y="320" as="sourcePoint" />
            <mxPoint x="280" y="200" as="targetPoint" />
          </mxGeometry>
        </mxCell>
        <mxCell id="30kHLgqN8U9FkPlxz_FP-8" value="c(2,4)" style="text;html=1;align=center;verticalAlign=middle;whiteSpace=wrap;rounded=0;" vertex="1" parent="1">
          <mxGeometry x="250" y="160" width="60" height="30" as="geometry" />
        </mxCell>
        <mxCell id="30kHLgqN8U9FkPlxz_FP-9" value="" style="endArrow=none;html=1;rounded=0;entryX=0.5;entryY=0;entryDx=0;entryDy=0;" edge="1" parent="1" target="30kHLgqN8U9FkPlxz_FP-6">
          <mxGeometry width="50" height="50" relative="1" as="geometry">
            <mxPoint x="280" y="200" as="sourcePoint" />
            <mxPoint x="440" y="270" as="targetPoint" />
          </mxGeometry>
        </mxCell>
        <mxCell id="30kHLgqN8U9FkPlxz_FP-10" value="" style="whiteSpace=wrap;html=1;aspect=fixed;fillColor=#e1d5e7;strokeColor=#9673a6;" vertex="1" parent="1">
          <mxGeometry x="260" y="400" width="160" height="160" as="geometry" />
        </mxCell>
        <mxCell id="30kHLgqN8U9FkPlxz_FP-11" value="" style="whiteSpace=wrap;html=1;aspect=fixed;fillColor=#dae8fc;strokeColor=#6c8ebf;" vertex="1" parent="1">
          <mxGeometry x="30" y="190" width="120" height="120" as="geometry" />
        </mxCell>
        <mxCell id="30kHLgqN8U9FkPlxz_FP-12" value="" style="whiteSpace=wrap;html=1;aspect=fixed;rotation=36;fillColor=#f8cecc;strokeColor=#b85450;" vertex="1" parent="1">
          <mxGeometry x="474" y="40" width="197.5" height="197.5" as="geometry" />
        </mxCell>
      </root>
    </mxGraphModel>
  </diagram>
  <diagram id="dFqT27IzGZBl-jmFceq1" name="Pagina-4">
    <mxGraphModel dx="1257" dy="789" grid="1" gridSize="10" guides="1" tooltips="1" connect="1" arrows="1" fold="1" page="1" pageScale="1" pageWidth="827" pageHeight="1169" math="0" shadow="0">
      <root>
        <mxCell id="0" />
        <mxCell id="1" parent="0" />
        <mxCell id="l64H7E4E-xwvf3J5wdEs-1" value="" style="shape=cylinder3;whiteSpace=wrap;html=1;boundedLbl=1;backgroundOutline=1;size=15;" vertex="1" parent="1">
          <mxGeometry x="50" y="30" width="60" height="80" as="geometry" />
        </mxCell>
        <mxCell id="l64H7E4E-xwvf3J5wdEs-2" value="canzoni" style="shape=table;startSize=30;container=1;collapsible=1;childLayout=tableLayout;fixedRows=1;rowLines=0;fontStyle=1;align=center;resizeLast=1;html=1;" vertex="1" parent="1">
          <mxGeometry x="10" y="140" width="140" height="120" as="geometry" />
        </mxCell>
        <mxCell id="l64H7E4E-xwvf3J5wdEs-3" value="" style="shape=tableRow;horizontal=0;startSize=0;swimlaneHead=0;swimlaneBody=0;fillColor=none;collapsible=0;dropTarget=0;points=[[0,0.5],[1,0.5]];portConstraint=eastwest;top=0;left=0;right=0;bottom=1;" vertex="1" parent="l64H7E4E-xwvf3J5wdEs-2">
          <mxGeometry y="30" width="140" height="30" as="geometry" />
        </mxCell>
        <mxCell id="l64H7E4E-xwvf3J5wdEs-4" value="PK" style="shape=partialRectangle;connectable=0;fillColor=none;top=0;left=0;bottom=0;right=0;fontStyle=1;overflow=hidden;whiteSpace=wrap;html=1;" vertex="1" parent="l64H7E4E-xwvf3J5wdEs-3">
          <mxGeometry width="30" height="30" as="geometry">
            <mxRectangle width="30" height="30" as="alternateBounds" />
          </mxGeometry>
        </mxCell>
        <mxCell id="l64H7E4E-xwvf3J5wdEs-5" value="id" style="shape=partialRectangle;connectable=0;fillColor=none;top=0;left=0;bottom=0;right=0;align=left;spacingLeft=6;fontStyle=5;overflow=hidden;whiteSpace=wrap;html=1;" vertex="1" parent="l64H7E4E-xwvf3J5wdEs-3">
          <mxGeometry x="30" width="110" height="30" as="geometry">
            <mxRectangle width="110" height="30" as="alternateBounds" />
          </mxGeometry>
        </mxCell>
        <mxCell id="l64H7E4E-xwvf3J5wdEs-6" value="" style="shape=tableRow;horizontal=0;startSize=0;swimlaneHead=0;swimlaneBody=0;fillColor=none;collapsible=0;dropTarget=0;points=[[0,0.5],[1,0.5]];portConstraint=eastwest;top=0;left=0;right=0;bottom=0;" vertex="1" parent="l64H7E4E-xwvf3J5wdEs-2">
          <mxGeometry y="60" width="140" height="30" as="geometry" />
        </mxCell>
        <mxCell id="l64H7E4E-xwvf3J5wdEs-7" value="" style="shape=partialRectangle;connectable=0;fillColor=none;top=0;left=0;bottom=0;right=0;editable=1;overflow=hidden;whiteSpace=wrap;html=1;" vertex="1" parent="l64H7E4E-xwvf3J5wdEs-6">
          <mxGeometry width="30" height="30" as="geometry">
            <mxRectangle width="30" height="30" as="alternateBounds" />
          </mxGeometry>
        </mxCell>
        <mxCell id="l64H7E4E-xwvf3J5wdEs-8" value="titolo" style="shape=partialRectangle;connectable=0;fillColor=none;top=0;left=0;bottom=0;right=0;align=left;spacingLeft=6;overflow=hidden;whiteSpace=wrap;html=1;" vertex="1" parent="l64H7E4E-xwvf3J5wdEs-6">
          <mxGeometry x="30" width="110" height="30" as="geometry">
            <mxRectangle width="110" height="30" as="alternateBounds" />
          </mxGeometry>
        </mxCell>
        <mxCell id="l64H7E4E-xwvf3J5wdEs-9" value="" style="shape=tableRow;horizontal=0;startSize=0;swimlaneHead=0;swimlaneBody=0;fillColor=none;collapsible=0;dropTarget=0;points=[[0,0.5],[1,0.5]];portConstraint=eastwest;top=0;left=0;right=0;bottom=0;" vertex="1" parent="l64H7E4E-xwvf3J5wdEs-2">
          <mxGeometry y="90" width="140" height="30" as="geometry" />
        </mxCell>
        <mxCell id="l64H7E4E-xwvf3J5wdEs-10" value="" style="shape=partialRectangle;connectable=0;fillColor=none;top=0;left=0;bottom=0;right=0;editable=1;overflow=hidden;whiteSpace=wrap;html=1;" vertex="1" parent="l64H7E4E-xwvf3J5wdEs-9">
          <mxGeometry width="30" height="30" as="geometry">
            <mxRectangle width="30" height="30" as="alternateBounds" />
          </mxGeometry>
        </mxCell>
        <mxCell id="l64H7E4E-xwvf3J5wdEs-11" value="cantante" style="shape=partialRectangle;connectable=0;fillColor=none;top=0;left=0;bottom=0;right=0;align=left;spacingLeft=6;overflow=hidden;whiteSpace=wrap;html=1;" vertex="1" parent="l64H7E4E-xwvf3J5wdEs-9">
          <mxGeometry x="30" width="110" height="30" as="geometry">
            <mxRectangle width="110" height="30" as="alternateBounds" />
          </mxGeometry>
        </mxCell>
        <mxCell id="l64H7E4E-xwvf3J5wdEs-15" value="canzoni.csv" style="whiteSpace=wrap;html=1;shape=mxgraph.basic.document" vertex="1" parent="1">
          <mxGeometry x="30" y="320" width="100" height="100" as="geometry" />
        </mxCell>
        <mxCell id="l64H7E4E-xwvf3J5wdEs-20" style="edgeStyle=orthogonalEdgeStyle;rounded=0;orthogonalLoop=1;jettySize=auto;html=1;exitX=0;exitY=0.5;exitDx=0;exitDy=0;exitPerimeter=0;" edge="1" parent="1" source="l64H7E4E-xwvf3J5wdEs-18" target="l64H7E4E-xwvf3J5wdEs-1">
          <mxGeometry relative="1" as="geometry" />
        </mxCell>
        <mxCell id="l64H7E4E-xwvf3J5wdEs-18" value="" style="outlineConnect=0;dashed=0;verticalLabelPosition=bottom;verticalAlign=top;align=center;html=1;shape=mxgraph.aws3.piop;fillColor=#2E73B8;gradientColor=none;" vertex="1" parent="1">
          <mxGeometry x="360" y="38.5" width="60" height="63" as="geometry" />
        </mxCell>
        <mxCell id="l64H7E4E-xwvf3J5wdEs-21" style="edgeStyle=orthogonalEdgeStyle;rounded=0;orthogonalLoop=1;jettySize=auto;html=1;exitX=0.05;exitY=0.95;exitDx=0;exitDy=0;exitPerimeter=0;entryX=1;entryY=0.5;entryDx=0;entryDy=0;entryPerimeter=0;" edge="1" parent="1" source="l64H7E4E-xwvf3J5wdEs-18" target="l64H7E4E-xwvf3J5wdEs-15">
          <mxGeometry relative="1" as="geometry" />
        </mxCell>
        <mxCell id="l64H7E4E-xwvf3J5wdEs-22" value="data model" style="text;html=1;align=center;verticalAlign=middle;whiteSpace=wrap;rounded=0;fillColor=#f8cecc;strokeColor=#b85450;" vertex="1" parent="1">
          <mxGeometry x="40" y="460" width="80" height="30" as="geometry" />
        </mxCell>
        <mxCell id="l64H7E4E-xwvf3J5wdEs-23" value="Canzone" style="swimlane;fontStyle=1;align=center;verticalAlign=top;childLayout=stackLayout;horizontal=1;startSize=26;horizontalStack=0;resizeParent=1;resizeParentMax=0;resizeLast=0;collapsible=1;marginBottom=0;whiteSpace=wrap;html=1;" vertex="1" parent="1">
          <mxGeometry x="300" y="136" width="160" height="138" as="geometry" />
        </mxCell>
        <mxCell id="l64H7E4E-xwvf3J5wdEs-24" value="- id: int" style="text;strokeColor=none;fillColor=none;align=left;verticalAlign=top;spacingLeft=4;spacingRight=4;overflow=hidden;rotatable=0;points=[[0,0.5],[1,0.5]];portConstraint=eastwest;whiteSpace=wrap;html=1;" vertex="1" parent="l64H7E4E-xwvf3J5wdEs-23">
          <mxGeometry y="26" width="160" height="26" as="geometry" />
        </mxCell>
        <mxCell id="l64H7E4E-xwvf3J5wdEs-29" value="- titolo: String" style="text;strokeColor=none;fillColor=none;align=left;verticalAlign=top;spacingLeft=4;spacingRight=4;overflow=hidden;rotatable=0;points=[[0,0.5],[1,0.5]];portConstraint=eastwest;whiteSpace=wrap;html=1;" vertex="1" parent="l64H7E4E-xwvf3J5wdEs-23">
          <mxGeometry y="52" width="160" height="26" as="geometry" />
        </mxCell>
        <mxCell id="l64H7E4E-xwvf3J5wdEs-28" value="- cantante: String" style="text;strokeColor=none;fillColor=none;align=left;verticalAlign=top;spacingLeft=4;spacingRight=4;overflow=hidden;rotatable=0;points=[[0,0.5],[1,0.5]];portConstraint=eastwest;whiteSpace=wrap;html=1;" vertex="1" parent="l64H7E4E-xwvf3J5wdEs-23">
          <mxGeometry y="78" width="160" height="26" as="geometry" />
        </mxCell>
        <mxCell id="l64H7E4E-xwvf3J5wdEs-25" value="" style="line;strokeWidth=1;fillColor=none;align=left;verticalAlign=middle;spacingTop=-1;spacingLeft=3;spacingRight=3;rotatable=0;labelPosition=right;points=[];portConstraint=eastwest;strokeColor=inherit;" vertex="1" parent="l64H7E4E-xwvf3J5wdEs-23">
          <mxGeometry y="104" width="160" height="8" as="geometry" />
        </mxCell>
        <mxCell id="l64H7E4E-xwvf3J5wdEs-26" value="+ getters, setters, toString" style="text;strokeColor=none;fillColor=none;align=left;verticalAlign=top;spacingLeft=4;spacingRight=4;overflow=hidden;rotatable=0;points=[[0,0.5],[1,0.5]];portConstraint=eastwest;whiteSpace=wrap;html=1;" vertex="1" parent="l64H7E4E-xwvf3J5wdEs-23">
          <mxGeometry y="112" width="160" height="26" as="geometry" />
        </mxCell>
        <mxCell id="l64H7E4E-xwvf3J5wdEs-30" style="edgeStyle=orthogonalEdgeStyle;rounded=0;orthogonalLoop=1;jettySize=auto;html=1;exitX=1;exitY=0.5;exitDx=0;exitDy=0;entryX=0.025;entryY=-0.115;entryDx=0;entryDy=0;entryPerimeter=0;startArrow=classic;startFill=1;" edge="1" parent="1" source="l64H7E4E-xwvf3J5wdEs-3" target="l64H7E4E-xwvf3J5wdEs-29">
          <mxGeometry relative="1" as="geometry" />
        </mxCell>
        <mxCell id="l64H7E4E-xwvf3J5wdEs-31" value="" style="endArrow=none;dashed=1;html=1;dashPattern=1 3;strokeWidth=2;rounded=0;" edge="1" parent="1">
          <mxGeometry width="50" height="50" relative="1" as="geometry">
            <mxPoint x="200" y="500" as="sourcePoint" />
            <mxPoint x="200" y="30" as="targetPoint" />
          </mxGeometry>
        </mxCell>
        <mxCell id="l64H7E4E-xwvf3J5wdEs-32" value="" style="endArrow=none;dashed=1;html=1;dashPattern=1 3;strokeWidth=2;rounded=0;" edge="1" parent="1">
          <mxGeometry width="50" height="50" relative="1" as="geometry">
            <mxPoint x="490" y="500" as="sourcePoint" />
            <mxPoint x="490" y="30" as="targetPoint" />
          </mxGeometry>
        </mxCell>
        <mxCell id="l64H7E4E-xwvf3J5wdEs-33" value="CanzoneController" style="swimlane;fontStyle=1;align=center;verticalAlign=top;childLayout=stackLayout;horizontal=1;startSize=26;horizontalStack=0;resizeParent=1;resizeParentMax=0;resizeLast=0;collapsible=1;marginBottom=0;whiteSpace=wrap;html=1;" vertex="1" parent="1">
          <mxGeometry x="530" y="156" width="280" height="164" as="geometry" />
        </mxCell>
        <mxCell id="l64H7E4E-xwvf3J5wdEs-34" value="- canzoni: Canzone[]" style="text;strokeColor=none;fillColor=none;align=left;verticalAlign=top;spacingLeft=4;spacingRight=4;overflow=hidden;rotatable=0;points=[[0,0.5],[1,0.5]];portConstraint=eastwest;whiteSpace=wrap;html=1;" vertex="1" parent="l64H7E4E-xwvf3J5wdEs-33">
          <mxGeometry y="26" width="280" height="26" as="geometry" />
        </mxCell>
        <mxCell id="l64H7E4E-xwvf3J5wdEs-37" value="" style="line;strokeWidth=1;fillColor=none;align=left;verticalAlign=middle;spacingTop=-1;spacingLeft=3;spacingRight=3;rotatable=0;labelPosition=right;points=[];portConstraint=eastwest;strokeColor=inherit;" vertex="1" parent="l64H7E4E-xwvf3J5wdEs-33">
          <mxGeometry y="52" width="280" height="8" as="geometry" />
        </mxCell>
        <mxCell id="l64H7E4E-xwvf3J5wdEs-38" value="+ addCanzone(Canzone): void" style="text;strokeColor=none;fillColor=none;align=left;verticalAlign=top;spacingLeft=4;spacingRight=4;overflow=hidden;rotatable=0;points=[[0,0.5],[1,0.5]];portConstraint=eastwest;whiteSpace=wrap;html=1;" vertex="1" parent="l64H7E4E-xwvf3J5wdEs-33">
          <mxGeometry y="60" width="280" height="26" as="geometry" />
        </mxCell>
        <mxCell id="l64H7E4E-xwvf3J5wdEs-40" value="+ getCanzoni(): Canzone[]" style="text;strokeColor=none;fillColor=none;align=left;verticalAlign=top;spacingLeft=4;spacingRight=4;overflow=hidden;rotatable=0;points=[[0,0.5],[1,0.5]];portConstraint=eastwest;whiteSpace=wrap;html=1;" vertex="1" parent="l64H7E4E-xwvf3J5wdEs-33">
          <mxGeometry y="86" width="280" height="26" as="geometry" />
        </mxCell>
        <mxCell id="l64H7E4E-xwvf3J5wdEs-41" value="+ getCanzoneById(int id): Canzone" style="text;strokeColor=none;fillColor=none;align=left;verticalAlign=top;spacingLeft=4;spacingRight=4;overflow=hidden;rotatable=0;points=[[0,0.5],[1,0.5]];portConstraint=eastwest;whiteSpace=wrap;html=1;" vertex="1" parent="l64H7E4E-xwvf3J5wdEs-33">
          <mxGeometry y="112" width="280" height="26" as="geometry" />
        </mxCell>
        <mxCell id="l64H7E4E-xwvf3J5wdEs-42" value="+ getCanzoneByCantante(String): Canzone[]" style="text;strokeColor=none;fillColor=none;align=left;verticalAlign=top;spacingLeft=4;spacingRight=4;overflow=hidden;rotatable=0;points=[[0,0.5],[1,0.5]];portConstraint=eastwest;whiteSpace=wrap;html=1;" vertex="1" parent="l64H7E4E-xwvf3J5wdEs-33">
          <mxGeometry y="138" width="280" height="26" as="geometry" />
        </mxCell>
        <mxCell id="l64H7E4E-xwvf3J5wdEs-39" style="edgeStyle=orthogonalEdgeStyle;rounded=0;orthogonalLoop=1;jettySize=auto;html=1;exitX=1;exitY=0.5;exitDx=0;exitDy=0;entryX=0;entryY=0.5;entryDx=0;entryDy=0;endArrow=diamond;endFill=0;" edge="1" parent="1" source="l64H7E4E-xwvf3J5wdEs-29" target="l64H7E4E-xwvf3J5wdEs-34">
          <mxGeometry relative="1" as="geometry" />
        </mxCell>
        <mxCell id="l64H7E4E-xwvf3J5wdEs-44" value="" style="strokeWidth=1;shadow=0;dashed=0;align=center;html=1;shape=mxgraph.mockup.containers.browserWindow;rSize=0;strokeColor=#666666;strokeColor2=#008cff;strokeColor3=#c4c4c4;mainText=,;recursiveResize=0;" vertex="1" parent="1">
          <mxGeometry x="430" y="640" width="355" height="240" as="geometry" />
        </mxCell>
        <mxCell id="l64H7E4E-xwvf3J5wdEs-45" value="Page 1" style="strokeWidth=1;shadow=0;dashed=0;align=center;html=1;shape=mxgraph.mockup.containers.anchor;fontSize=17;fontColor=#666666;align=left;whiteSpace=wrap;" vertex="1" parent="l64H7E4E-xwvf3J5wdEs-44">
          <mxGeometry x="60" y="12" width="110" height="26" as="geometry" />
        </mxCell>
        <mxCell id="l64H7E4E-xwvf3J5wdEs-46" value="https://www.draw.io" style="strokeWidth=1;shadow=0;dashed=0;align=center;html=1;shape=mxgraph.mockup.containers.anchor;rSize=0;fontSize=17;fontColor=#666666;align=left;" vertex="1" parent="l64H7E4E-xwvf3J5wdEs-44">
          <mxGeometry x="130" y="60" width="250" height="26" as="geometry" />
        </mxCell>
        <mxCell id="l64H7E4E-xwvf3J5wdEs-47" value="Tutte le canzoni" style="html=1;shadow=0;dashed=0;shape=mxgraph.bootstrap.rrect;rSize=5;strokeColor=none;strokeWidth=1;fillColor=#0085FC;fontColor=#FFFFFF;whiteSpace=wrap;align=center;verticalAlign=middle;spacingLeft=0;fontStyle=0;fontSize=16;spacing=5;" vertex="1" parent="l64H7E4E-xwvf3J5wdEs-44">
          <mxGeometry x="10" y="120" width="170" height="40" as="geometry" />
        </mxCell>
        <mxCell id="l64H7E4E-xwvf3J5wdEs-48" value="" style="image;aspect=fixed;perimeter=ellipsePerimeter;html=1;align=center;shadow=0;dashed=0;spacingTop=3;image=img/lib/active_directory/laptop_client.svg;" vertex="1" parent="1">
          <mxGeometry x="110" y="640" width="189" height="210" as="geometry" />
        </mxCell>
        <mxCell id="l64H7E4E-xwvf3J5wdEs-49" style="edgeStyle=orthogonalEdgeStyle;rounded=0;orthogonalLoop=1;jettySize=auto;html=1;exitX=1;exitY=0.5;exitDx=0;exitDy=0;entryX=0.001;entryY=0.432;entryDx=0;entryDy=0;entryPerimeter=0;" edge="1" parent="1" source="l64H7E4E-xwvf3J5wdEs-48" target="l64H7E4E-xwvf3J5wdEs-44">
          <mxGeometry relative="1" as="geometry" />
        </mxCell>
        <mxCell id="l64H7E4E-xwvf3J5wdEs-51" style="edgeStyle=orthogonalEdgeStyle;rounded=0;orthogonalLoop=1;jettySize=auto;html=1;exitX=0.75;exitY=1;exitDx=0;exitDy=0;startArrow=classic;startFill=1;" edge="1" parent="1" source="l64H7E4E-xwvf3J5wdEs-50" target="l64H7E4E-xwvf3J5wdEs-44">
          <mxGeometry relative="1" as="geometry" />
        </mxCell>
        <mxCell id="l64H7E4E-xwvf3J5wdEs-50" value="" style="image;aspect=fixed;perimeter=ellipsePerimeter;html=1;align=center;shadow=0;dashed=0;spacingTop=3;image=img/lib/active_directory/generic_server.svg;" vertex="1" parent="1">
          <mxGeometry x="320" y="420" width="88" height="157.14" as="geometry" />
        </mxCell>
        <mxCell id="l64H7E4E-xwvf3J5wdEs-52" value="" style="strokeWidth=1;shadow=0;dashed=0;align=center;html=1;shape=mxgraph.mockup.containers.browserWindow;rSize=0;strokeColor=#666666;strokeColor2=#008cff;strokeColor3=#c4c4c4;mainText=,;recursiveResize=0;" vertex="1" parent="1">
          <mxGeometry x="430" y="920" width="355" height="300" as="geometry" />
        </mxCell>
        <mxCell id="l64H7E4E-xwvf3J5wdEs-53" value="Page 1" style="strokeWidth=1;shadow=0;dashed=0;align=center;html=1;shape=mxgraph.mockup.containers.anchor;fontSize=17;fontColor=#666666;align=left;whiteSpace=wrap;" vertex="1" parent="l64H7E4E-xwvf3J5wdEs-52">
          <mxGeometry x="60" y="12" width="110" height="26" as="geometry" />
        </mxCell>
        <mxCell id="l64H7E4E-xwvf3J5wdEs-54" value="https://www.draw.io" style="strokeWidth=1;shadow=0;dashed=0;align=center;html=1;shape=mxgraph.mockup.containers.anchor;rSize=0;fontSize=17;fontColor=#666666;align=left;" vertex="1" parent="l64H7E4E-xwvf3J5wdEs-52">
          <mxGeometry x="130" y="60" width="250" height="26" as="geometry" />
        </mxCell>
        <mxCell id="l64H7E4E-xwvf3J5wdEs-56" value="Assets" style="childLayout=tableLayout;recursiveResize=0;strokeColor=#98bf21;fillColor=#A7C942;shadow=1;" vertex="1" parent="l64H7E4E-xwvf3J5wdEs-52">
          <mxGeometry x="37.5" y="120" width="280" height="160" as="geometry" />
        </mxCell>
        <mxCell id="l64H7E4E-xwvf3J5wdEs-57" style="shape=tableRow;horizontal=0;startSize=0;swimlaneHead=0;swimlaneBody=0;top=0;left=0;bottom=0;right=0;dropTarget=0;collapsible=0;recursiveResize=0;expand=0;fontStyle=0;strokeColor=inherit;fillColor=#ffffff;" vertex="1" parent="l64H7E4E-xwvf3J5wdEs-56">
          <mxGeometry width="280" height="33" as="geometry" />
        </mxCell>
        <mxCell id="l64H7E4E-xwvf3J5wdEs-58" value="Title 1" style="connectable=0;recursiveResize=0;strokeColor=inherit;fillColor=#A7C942;align=center;fontStyle=1;fontColor=#FFFFFF;html=1;" vertex="1" parent="l64H7E4E-xwvf3J5wdEs-57">
          <mxGeometry width="93" height="33" as="geometry">
            <mxRectangle width="93" height="33" as="alternateBounds" />
          </mxGeometry>
        </mxCell>
        <mxCell id="l64H7E4E-xwvf3J5wdEs-59" value="Title 2" style="connectable=0;recursiveResize=0;strokeColor=inherit;fillColor=#A7C942;align=center;fontStyle=1;fontColor=#FFFFFF;html=1;" vertex="1" parent="l64H7E4E-xwvf3J5wdEs-57">
          <mxGeometry x="93" width="94" height="33" as="geometry">
            <mxRectangle width="94" height="33" as="alternateBounds" />
          </mxGeometry>
        </mxCell>
        <mxCell id="l64H7E4E-xwvf3J5wdEs-60" value="Title 3" style="connectable=0;recursiveResize=0;strokeColor=inherit;fillColor=#A7C942;align=center;fontStyle=1;fontColor=#FFFFFF;html=1;" vertex="1" parent="l64H7E4E-xwvf3J5wdEs-57">
          <mxGeometry x="187" width="93" height="33" as="geometry">
            <mxRectangle width="93" height="33" as="alternateBounds" />
          </mxGeometry>
        </mxCell>
        <mxCell id="l64H7E4E-xwvf3J5wdEs-61" value="" style="shape=tableRow;horizontal=0;startSize=0;swimlaneHead=0;swimlaneBody=0;top=0;left=0;bottom=0;right=0;dropTarget=0;collapsible=0;recursiveResize=0;expand=0;fontStyle=0;strokeColor=inherit;fillColor=#ffffff;" vertex="1" parent="l64H7E4E-xwvf3J5wdEs-56">
          <mxGeometry y="33" width="280" height="32" as="geometry" />
        </mxCell>
        <mxCell id="l64H7E4E-xwvf3J5wdEs-62" value="Value 1" style="connectable=0;recursiveResize=0;strokeColor=inherit;fillColor=inherit;align=center;whiteSpace=wrap;html=1;" vertex="1" parent="l64H7E4E-xwvf3J5wdEs-61">
          <mxGeometry width="93" height="32" as="geometry">
            <mxRectangle width="93" height="32" as="alternateBounds" />
          </mxGeometry>
        </mxCell>
        <mxCell id="l64H7E4E-xwvf3J5wdEs-63" value="Value 2" style="connectable=0;recursiveResize=0;strokeColor=inherit;fillColor=inherit;align=center;whiteSpace=wrap;html=1;" vertex="1" parent="l64H7E4E-xwvf3J5wdEs-61">
          <mxGeometry x="93" width="94" height="32" as="geometry">
            <mxRectangle width="94" height="32" as="alternateBounds" />
          </mxGeometry>
        </mxCell>
        <mxCell id="l64H7E4E-xwvf3J5wdEs-64" value="Value 3" style="connectable=0;recursiveResize=0;strokeColor=inherit;fillColor=inherit;align=center;whiteSpace=wrap;html=1;" vertex="1" parent="l64H7E4E-xwvf3J5wdEs-61">
          <mxGeometry x="187" width="93" height="32" as="geometry">
            <mxRectangle width="93" height="32" as="alternateBounds" />
          </mxGeometry>
        </mxCell>
        <mxCell id="l64H7E4E-xwvf3J5wdEs-65" value="" style="shape=tableRow;horizontal=0;startSize=0;swimlaneHead=0;swimlaneBody=0;top=0;left=0;bottom=0;right=0;dropTarget=0;collapsible=0;recursiveResize=0;expand=0;fontStyle=1;strokeColor=inherit;fillColor=#EAF2D3;" vertex="1" parent="l64H7E4E-xwvf3J5wdEs-56">
          <mxGeometry y="65" width="280" height="31" as="geometry" />
        </mxCell>
        <mxCell id="l64H7E4E-xwvf3J5wdEs-66" value="Value 4" style="connectable=0;recursiveResize=0;strokeColor=inherit;fillColor=inherit;whiteSpace=wrap;html=1;" vertex="1" parent="l64H7E4E-xwvf3J5wdEs-65">
          <mxGeometry width="93" height="31" as="geometry">
            <mxRectangle width="93" height="31" as="alternateBounds" />
          </mxGeometry>
        </mxCell>
        <mxCell id="l64H7E4E-xwvf3J5wdEs-67" value="Value 5" style="connectable=0;recursiveResize=0;strokeColor=inherit;fillColor=inherit;whiteSpace=wrap;html=1;" vertex="1" parent="l64H7E4E-xwvf3J5wdEs-65">
          <mxGeometry x="93" width="94" height="31" as="geometry">
            <mxRectangle width="94" height="31" as="alternateBounds" />
          </mxGeometry>
        </mxCell>
        <mxCell id="l64H7E4E-xwvf3J5wdEs-68" value="Value 6" style="connectable=0;recursiveResize=0;strokeColor=inherit;fillColor=inherit;whiteSpace=wrap;html=1;" vertex="1" parent="l64H7E4E-xwvf3J5wdEs-65">
          <mxGeometry x="187" width="93" height="31" as="geometry">
            <mxRectangle width="93" height="31" as="alternateBounds" />
          </mxGeometry>
        </mxCell>
        <mxCell id="l64H7E4E-xwvf3J5wdEs-69" value="" style="shape=tableRow;horizontal=0;startSize=0;swimlaneHead=0;swimlaneBody=0;top=0;left=0;bottom=0;right=0;dropTarget=0;collapsible=0;recursiveResize=0;expand=0;fontStyle=0;strokeColor=inherit;fillColor=#ffffff;" vertex="1" parent="l64H7E4E-xwvf3J5wdEs-56">
          <mxGeometry y="96" width="280" height="33" as="geometry" />
        </mxCell>
        <mxCell id="l64H7E4E-xwvf3J5wdEs-70" value="Value 7" style="connectable=0;recursiveResize=0;strokeColor=inherit;fillColor=inherit;fontStyle=0;align=center;whiteSpace=wrap;html=1;" vertex="1" parent="l64H7E4E-xwvf3J5wdEs-69">
          <mxGeometry width="93" height="33" as="geometry">
            <mxRectangle width="93" height="33" as="alternateBounds" />
          </mxGeometry>
        </mxCell>
        <mxCell id="l64H7E4E-xwvf3J5wdEs-71" value="Value 8" style="connectable=0;recursiveResize=0;strokeColor=inherit;fillColor=inherit;fontStyle=0;align=center;whiteSpace=wrap;html=1;" vertex="1" parent="l64H7E4E-xwvf3J5wdEs-69">
          <mxGeometry x="93" width="94" height="33" as="geometry">
            <mxRectangle width="94" height="33" as="alternateBounds" />
          </mxGeometry>
        </mxCell>
        <mxCell id="l64H7E4E-xwvf3J5wdEs-72" value="Value 9" style="connectable=0;recursiveResize=0;strokeColor=inherit;fillColor=inherit;fontStyle=0;align=center;whiteSpace=wrap;html=1;" vertex="1" parent="l64H7E4E-xwvf3J5wdEs-69">
          <mxGeometry x="187" width="93" height="33" as="geometry">
            <mxRectangle width="93" height="33" as="alternateBounds" />
          </mxGeometry>
        </mxCell>
        <mxCell id="l64H7E4E-xwvf3J5wdEs-73" value="" style="shape=tableRow;horizontal=0;startSize=0;swimlaneHead=0;swimlaneBody=0;top=0;left=0;bottom=0;right=0;dropTarget=0;collapsible=0;recursiveResize=0;expand=0;fontStyle=1;strokeColor=inherit;fillColor=#EAF2D3;" vertex="1" parent="l64H7E4E-xwvf3J5wdEs-56">
          <mxGeometry y="129" width="280" height="31" as="geometry" />
        </mxCell>
        <mxCell id="l64H7E4E-xwvf3J5wdEs-74" value="Value 10" style="connectable=0;recursiveResize=0;strokeColor=inherit;fillColor=inherit;whiteSpace=wrap;html=1;" vertex="1" parent="l64H7E4E-xwvf3J5wdEs-73">
          <mxGeometry width="93" height="31" as="geometry">
            <mxRectangle width="93" height="31" as="alternateBounds" />
          </mxGeometry>
        </mxCell>
        <mxCell id="l64H7E4E-xwvf3J5wdEs-75" value="Value 11" style="connectable=0;recursiveResize=0;strokeColor=inherit;fillColor=inherit;whiteSpace=wrap;html=1;" vertex="1" parent="l64H7E4E-xwvf3J5wdEs-73">
          <mxGeometry x="93" width="94" height="31" as="geometry">
            <mxRectangle width="94" height="31" as="alternateBounds" />
          </mxGeometry>
        </mxCell>
        <mxCell id="l64H7E4E-xwvf3J5wdEs-76" value="Value 12" style="connectable=0;recursiveResize=0;strokeColor=inherit;fillColor=inherit;whiteSpace=wrap;html=1;" vertex="1" parent="l64H7E4E-xwvf3J5wdEs-73">
          <mxGeometry x="187" width="93" height="31" as="geometry">
            <mxRectangle width="93" height="31" as="alternateBounds" />
          </mxGeometry>
        </mxCell>
      </root>
    </mxGraphModel>
  </diagram>
</mxfile>
